<svg xmlns="http://www.w3.org/2000/svg" viewBox="0 0 254.7 185.98"><defs><style>.cls-1{fill:#10b2b1;}.cls-2{fill:#42c3c1;}.cls-3{fill:#9bd3d2;}.cls-4{fill:#183145;}.cls-5{fill:#0db2b0;}</style></defs><g id="Layer_1" data-name="Layer 1"><path class="cls-1" d="M4.28,176.66v2.59H8v.92H4.28v3H3.21v-7.45H8.47v.93Z"/><path class="cls-1" d="M17.08,183.18l-1.61-2.29a4.38,4.38,0,0,1-.47,0H13.16v2.27H12.1v-7.45H15a3.45,3.45,0,0,1,2.28.69,2.33,2.33,0,0,1,.83,1.91,2.54,2.54,0,0,1-.42,1.47,2.48,2.48,0,0,1-1.22.88l1.77,2.5Zm-.56-3.61a1.72,1.72,0,0,0,0-2.48,2.41,2.41,0,0,0-1.55-.43H13.16V180H15A2.41,2.41,0,0,0,16.52,179.57Z"/><path class="cls-1" d="M27.38,182.25v.93H22v-7.45h5.26v.93H23v2.28h3.74v.91H23v2.4Z"/><path class="cls-1" d="M36.64,182.25v.93H31.23v-7.45h5.26v.93h-4.2v2.28H36v.91H32.29v2.4Z"/><path class="cls-1" d="M45.67,176.42a2.6,2.6,0,0,1,0,3.81,3.45,3.45,0,0,1-2.28.69H41.55v2.26H40.49v-7.45h2.9A3.45,3.45,0,0,1,45.67,176.42Zm-.76,3.15a1.72,1.72,0,0,0,0-2.48,2.41,2.41,0,0,0-1.55-.43H41.55V180h1.81A2.47,2.47,0,0,0,44.91,179.57Z"/><path class="cls-1" d="M51.63,182.77a3.74,3.74,0,0,1-1.42-1.37,4,4,0,0,1,0-3.89,3.67,3.67,0,0,1,1.42-1.37,4.37,4.37,0,0,1,4.06,0,3.62,3.62,0,0,1,1.41,1.36,3.94,3.94,0,0,1,0,3.91,3.62,3.62,0,0,1-1.41,1.36,4.37,4.37,0,0,1-4.06,0Zm3.51-.82a2.75,2.75,0,0,0,1-1,3,3,0,0,0,0-2.93,2.68,2.68,0,0,0-1-1,3,3,0,0,0-1.47-.37,3.08,3.08,0,0,0-1.49.37,2.71,2.71,0,0,0-1,1,3,3,0,0,0,0,2.93,2.78,2.78,0,0,0,1,1,3.08,3.08,0,0,0,1.49.37A3,3,0,0,0,55.14,182Z"/><path class="cls-1" d="M66.35,183.18l-1.6-2.29a4.47,4.47,0,0,1-.47,0H62.44v2.27H61.37v-7.45h2.91a3.49,3.49,0,0,1,2.28.69,2.36,2.36,0,0,1,.83,1.91,2.34,2.34,0,0,1-1.64,2.35l1.76,2.5Zm-.56-3.61a1.72,1.72,0,0,0,0-2.48,2.38,2.38,0,0,0-1.54-.43H62.44V180h1.81A2.38,2.38,0,0,0,65.79,179.57Z"/><path class="cls-1" d="M72.61,176.66H70.06v-.93h6.16v.93H73.67v6.52H72.61Z"/><path class="cls-1" d="M90,183.3l-1-1a3.43,3.43,0,0,1-2.49,1,3.59,3.59,0,0,1-1.34-.25,2.07,2.07,0,0,1-.93-.69,1.62,1.62,0,0,1-.33-1,1.82,1.82,0,0,1,.42-1.21A4.93,4.93,0,0,1,85.67,179a4.2,4.2,0,0,1-.69-.88,1.87,1.87,0,0,1-.2-.82,1.5,1.5,0,0,1,.55-1.22,2.22,2.22,0,0,1,1.46-.45,2,2,0,0,1,1.35.41,1.39,1.39,0,0,1,.5,1.14,1.56,1.56,0,0,1-.36,1,4.56,4.56,0,0,1-1.22.94L88.9,181a5.24,5.24,0,0,0,.46-1.35l.82.26a5.12,5.12,0,0,1-.65,1.71l1,1Zm-1.59-1.59-2.12-2.11a3.81,3.81,0,0,0-1.07.8,1.26,1.26,0,0,0-.3.82,1,1,0,0,0,.46.86,2,2,0,0,0,1.21.33A2.5,2.5,0,0,0,88.36,181.71ZM86,176.66a.83.83,0,0,0-.28.65,1.12,1.12,0,0,0,.15.56,4.12,4.12,0,0,0,.6.72,4.41,4.41,0,0,0,1-.71.93.93,0,0,0,.28-.65.73.73,0,0,0-.26-.6,1.08,1.08,0,0,0-.73-.22A1.13,1.13,0,0,0,86,176.66Z"/><path class="cls-1" d="M105,180a1.89,1.89,0,0,1,.37,1.2,1.74,1.74,0,0,1-.72,1.49,3.64,3.64,0,0,1-2.13.52H98.93v-7.45h3.34a3.28,3.28,0,0,1,2,.51,1.65,1.65,0,0,1,.7,1.42,1.86,1.86,0,0,1-.27,1,1.77,1.77,0,0,1-.73.65A1.94,1.94,0,0,1,105,180Zm-5-3.38V179h2.18a2.21,2.21,0,0,0,1.26-.31,1,1,0,0,0,.45-.89,1,1,0,0,0-.45-.89,2.21,2.21,0,0,0-1.26-.3ZM103.8,182a1,1,0,0,0,.46-.94c0-.83-.61-1.24-1.82-1.24H100v2.48h2.45A2.49,2.49,0,0,0,103.8,182Z"/><path class="cls-1" d="M110.44,182.77A3.74,3.74,0,0,1,109,181.4a4,4,0,0,1,0-3.89,3.67,3.67,0,0,1,1.42-1.37,4.19,4.19,0,0,1,2-.5,4.14,4.14,0,0,1,2,.5,3.71,3.71,0,0,1,1.42,1.36,4,4,0,0,1,0,3.91,3.71,3.71,0,0,1-1.42,1.36,4.14,4.14,0,0,1-2,.5A4.19,4.19,0,0,1,110.44,182.77ZM114,182a2.75,2.75,0,0,0,1-1,3,3,0,0,0,0-2.93,2.68,2.68,0,0,0-1-1,3,3,0,0,0-1.47-.37A3.08,3.08,0,0,0,111,177a2.71,2.71,0,0,0-1,1,3,3,0,0,0,0,2.93,2.78,2.78,0,0,0,1,1,3.08,3.08,0,0,0,1.49.37A3,3,0,0,0,114,182Z"/><path class="cls-1" d="M124.82,181.32h-4l-.82,1.86H119l3.37-7.45h1.06l3.38,7.45h-1.12Zm-.37-.85-1.61-3.66-1.6,3.66Z"/><path class="cls-1" d="M131.11,176.66h-2.56v-.93h6.16v.93h-2.55v6.52h-1Z"/><path class="cls-1" d="M140.77,180.6v2.58h-1.05v-2.6l-3-4.85h1.14l2.38,3.93,2.4-3.93h1Z"/><path class="cls-1" d="M151.23,181.32h-4l-.82,1.86h-1.09l3.37-7.45h1.06l3.38,7.45h-1.12Zm-.37-.85-1.61-3.66-1.6,3.66Z"/><path class="cls-1" d="M161.39,183.18l-1.61-2.29a4.38,4.38,0,0,1-.47,0h-1.84v2.27h-1.06v-7.45h2.9a3.45,3.45,0,0,1,2.28.69,2.36,2.36,0,0,1,.83,1.91,2.54,2.54,0,0,1-.42,1.47,2.48,2.48,0,0,1-1.22.88l1.77,2.5Zm-.57-3.61a1.69,1.69,0,0,0,0-2.48,2.36,2.36,0,0,0-1.54-.43h-1.81V180h1.81A2.36,2.36,0,0,0,160.82,179.57Z"/><path class="cls-1" d="M166.27,175.73h3.14a4.57,4.57,0,0,1,2.1.47,3.46,3.46,0,0,1,1.42,1.31,4,4,0,0,1,0,3.89,3.46,3.46,0,0,1-1.42,1.31,4.57,4.57,0,0,1-2.1.47h-3.14Zm3.08,6.52a3.39,3.39,0,0,0,1.59-.35,2.52,2.52,0,0,0,1.06-1,3.09,3.09,0,0,0,0-2.93,2.52,2.52,0,0,0-1.06-1,3.39,3.39,0,0,0-1.59-.35h-2v5.59Z"/><path class="cls-1" d="M182.74,183a3.11,3.11,0,0,1-1.23-.67l.39-.83a3.35,3.35,0,0,0,1.09.62,4,4,0,0,0,1.37.24,2.43,2.43,0,0,0,1.38-.31,1,1,0,0,0,.46-.84.81.81,0,0,0-.25-.62,1.74,1.74,0,0,0-.62-.37c-.24-.08-.59-.18-1-.29a10.67,10.67,0,0,1-1.36-.4,2.31,2.31,0,0,1-.89-.62,1.69,1.69,0,0,1-.36-1.14,1.91,1.91,0,0,1,.31-1.07,2.18,2.18,0,0,1,.95-.77,3.93,3.93,0,0,1,1.59-.29,5.21,5.21,0,0,1,1.3.17,3.82,3.82,0,0,1,1.1.49l-.36.86a4,4,0,0,0-1-.46,3.79,3.79,0,0,0-1-.15,2.31,2.31,0,0,0-1.36.33,1,1,0,0,0-.45.85.81.81,0,0,0,.26.62,1.8,1.8,0,0,0,.63.38c.25.08.59.18,1,.28a10.45,10.45,0,0,1,1.35.4,2.35,2.35,0,0,1,.88.62,1.66,1.66,0,0,1,.36,1.12,1.87,1.87,0,0,1-.32,1.07,2.07,2.07,0,0,1-1,.76,4,4,0,0,1-1.6.29A4.92,4.92,0,0,1,182.74,183Z"/><path class="cls-1" d="M196.33,182.25v.93h-5.4v-7.45h5.26v.93H192v2.28h3.74v.91H192v2.4Z"/><path class="cls-1" d="M205.17,183.18l-1.61-2.29a4.38,4.38,0,0,1-.47,0h-1.84v2.27h-1.06v-7.45h2.9a3.45,3.45,0,0,1,2.28.69,2.33,2.33,0,0,1,.83,1.91,2.54,2.54,0,0,1-.42,1.47,2.48,2.48,0,0,1-1.22.88l1.77,2.5Zm-.56-3.61a1.72,1.72,0,0,0,0-2.48,2.41,2.41,0,0,0-1.55-.43h-1.81V180h1.81A2.41,2.41,0,0,0,204.61,179.57Z"/><path class="cls-1" d="M216.53,175.73l-3.27,7.45h-1l-3.28-7.45h1.15l2.68,6.12,2.7-6.12Z"/><path class="cls-1" d="M219.6,175.73h1.07v7.45H219.6Z"/><path class="cls-1" d="M226.35,182.77a3.62,3.62,0,0,1-1.41-1.36,3.94,3.94,0,0,1,0-3.91,3.62,3.62,0,0,1,1.41-1.36,4.17,4.17,0,0,1,2-.5,4.11,4.11,0,0,1,1.6.3,3.26,3.26,0,0,1,1.24.86l-.7.67a2.8,2.8,0,0,0-2.09-.88,3.09,3.09,0,0,0-1.5.37,2.67,2.67,0,0,0-1,1,3,3,0,0,0,0,2.93,2.74,2.74,0,0,0,1,1,3.09,3.09,0,0,0,1.5.37,2.75,2.75,0,0,0,2.09-.9l.7.67A3.31,3.31,0,0,1,230,183a4.2,4.2,0,0,1-1.61.3A4.1,4.1,0,0,1,226.35,182.77Z"/><path class="cls-1" d="M240.26,182.25v.93h-5.4v-7.45h5.26v.93h-4.2v2.28h3.74v.91h-3.74v2.4Z"/><path class="cls-1" d="M244.67,183a3.11,3.11,0,0,1-1.23-.67l.39-.83a3.35,3.35,0,0,0,1.09.62,4,4,0,0,0,1.37.24,2.43,2.43,0,0,0,1.38-.31,1,1,0,0,0,.46-.84.81.81,0,0,0-.25-.62,1.74,1.74,0,0,0-.62-.37c-.24-.08-.59-.18-1-.29a10.67,10.67,0,0,1-1.36-.4,2.31,2.31,0,0,1-.89-.62,1.69,1.69,0,0,1-.36-1.14,1.91,1.91,0,0,1,.31-1.07,2.18,2.18,0,0,1,.95-.77,3.93,3.93,0,0,1,1.59-.29,5.21,5.21,0,0,1,1.3.17,3.82,3.82,0,0,1,1.1.49l-.36.86a4,4,0,0,0-1-.46,3.79,3.79,0,0,0-1-.15,2.31,2.31,0,0,0-1.36.33,1,1,0,0,0-.45.85.81.81,0,0,0,.26.62,1.8,1.8,0,0,0,.63.38c.25.08.59.18,1,.28a10.45,10.45,0,0,1,1.35.4,2.35,2.35,0,0,1,.88.62,1.66,1.66,0,0,1,.36,1.12,1.87,1.87,0,0,1-.32,1.07,2.07,2.07,0,0,1-1,.76,4,4,0,0,1-1.6.29A4.92,4.92,0,0,1,244.67,183Z"/><path class="cls-1" d="M126.12,108.57s-31.84.15-41.78.15c23.46-47,39.84-90.91,41.78-98.43Zm45.95,4.13s-17.65-61-41.39-106c5.11,35.37,5.06,61.22.45,101.92C144.29,108.57,162.65,109.66,172.07,112.7Z"/><path class="cls-2" d="M156.64,114.05c-2.67-16.21-18-62.92-25.5-76.81,6.46,24.21,5.06,48.48,4.18,73.94A94.4,94.4,0,0,1,156.64,114.05Z"/><path class="cls-3" d="M62.48,131.88c5.06-1.64,16.2-4.12,24.19-2.7,21.14,3.76,29.94.64,29.94.64s-13.65-1.17-27.12-2.59A49.76,49.76,0,0,0,62.48,131.88Z"/><path class="cls-4" d="M176.43,117.06H143.21l-2.36-.56-11.13-.34V6.65h-.82V0h-.33V6.65h-.7V116.1l-3.94-.12s-5.62-3-7.77-3.39c-4.84-.47-15.39,0-15.39,0l-.47.5-2.46,2.85H84.58a.54.54,0,0,0-.37.13l-1.25,1H72.5a.86.86,0,0,0-.53.19,16.9,16.9,0,0,0-2.89,3.16,3.15,3.15,0,0,0,.83,4.46l1.83,1.19c1.42-.16,2.9-.34,4.33-.54,11.33-1.59,18.58,0,30.63.84,7.46.87,16.41,2.49,24.2,0,6.34-1.76,17.13-4.82,20-5.27,4.52-.68,12.64-1.52,16,2.75a7.38,7.38,0,0,1,1,1.66,29.13,29.13,0,0,0,8.77-7.71A.46.46,0,0,0,176.43,117.06Z"/><path class="cls-5" d="M83.27,132.2c50.61,11,70-15.14,82.43-2.79.31.31.84-.13.62-.52C156.18,111.54,131.87,140.15,83.27,132.2Z"/><path class="cls-4" d="M3,148H2.93a1.42,1.42,0,0,0-.44-1,1.35,1.35,0,0,0-1-.41H1.21v-.22H3Zm0,12.39V162H1.21v-.22H1.5a1.35,1.35,0,0,0,1-.41,1.42,1.42,0,0,0,.44-1Zm2-14V162H2.93V146.37Zm8.72,7.51v.76H4.79v-.76ZM4.94,148v-1.63H6.73v.22H6.44a1.35,1.35,0,0,0-1,.41A1.46,1.46,0,0,0,5,148Zm0,12.39H5a1.46,1.46,0,0,0,.44,1,1.35,1.35,0,0,0,1,.41h.29V162H4.94ZM13.6,148h-.07a1.36,1.36,0,0,0-.42-1,1.43,1.43,0,0,0-1-.41h-.29v-.22H13.6Zm0,12.39V162H11.81v-.22h.29a1.43,1.43,0,0,0,1-.41,1.36,1.36,0,0,0,.42-1Zm2-14V162H13.53V146.37ZM15.55,148v-1.63h1.78v.22H17a1.38,1.38,0,0,0-1,.41,1.46,1.46,0,0,0-.44,1Zm0,12.39h.06a1.46,1.46,0,0,0,.44,1,1.38,1.38,0,0,0,1,.41h.29V162H15.55Z"/><path class="cls-4" d="M24.69,160.44a.91.91,0,0,0,.78,1.36h.18V162H21.31v-.22h.18a1.75,1.75,0,0,0,.94-.31,2.5,2.5,0,0,0,.85-1.05ZM29,148.2l.14,1.92-5,11.84h-1.5l5.28-11.32.15-.35c.09-.2.19-.43.3-.7s.22-.53.32-.78a3.46,3.46,0,0,0,.17-.61Zm2.42,8.88v.74H25.52v-.74ZM29,148.2l6.31,13.69H32.83l-4.56-11Zm3.29,12.24h2.37a2.4,2.4,0,0,0,.83,1.05,1.75,1.75,0,0,0,.94.31h.18V162H31.31v-.22h.18a.92.92,0,0,0,.7-.36A.94.94,0,0,0,32.25,160.44Z"/><path class="cls-4" d="M42.13,160.55V162H39.85v-.22h.32a1.64,1.64,0,0,0,1-.32,1.31,1.31,0,0,0,.5-.93Zm1.28-12.26h.22l.54,1.61L42.78,162H41.49Zm-.51,12.59a1,1,0,0,0,.15.61.72.72,0,0,0,.65.33H44v.2H42.72l0-1.14Zm.73-12.59,6.27,11.12-.76,3-6-10.73Zm11.81,0,.2,1.75-5.5,10.06a9,9,0,0,0-.53,1.27,5,5,0,0,0-.25,1h-.22l-.5-1.56Zm.2,0,2,13.73H55.38L54,151.8l1.41-3.51Zm-.42,12.59h.16l0,1.14H54.1v-.2h.34a.71.71,0,0,0,.66-.33A1,1,0,0,0,55.22,160.88Zm1.77-.33h.44a1.37,1.37,0,0,0,.53.93,1.66,1.66,0,0,0,1,.32h.31V162H57Z"/><path class="cls-4" d="M65,150H65a1.18,1.18,0,0,0-.44-.87,1.53,1.53,0,0,0-1-.34h-.29v-.23H65Zm0,10.55V162H63.22v-.22h.32a1.47,1.47,0,0,0,1-.36,1.15,1.15,0,0,0,.44-.85Zm2-12V162H65V148.6ZM66.91,150V148.6h1.81l0,.23h-.27a1.51,1.51,0,0,0-1,.34A1.14,1.14,0,0,0,67,150Zm0,10.55H67a1.12,1.12,0,0,0,.44.85,1.47,1.47,0,0,0,1,.36h.27l0,.22H66.91Z"/><path class="cls-4" d="M74.77,150h0a1.25,1.25,0,0,0-1.3-1.21h-.27v-.23h1.61Zm0,10.55L75,162H73.16v-.22h.32a1.18,1.18,0,0,0,.88-.36,1.28,1.28,0,0,0,.37-.85Zm2-12V162h-2V148.6ZM76.7,150V148.6h1.63v.23h-.27a1.33,1.33,0,0,0-.92.34,1.15,1.15,0,0,0-.38.87Zm5.81,11.22.16.76h-6v-.76Zm1.32-2.75L82.74,162H79.18l.74-.76a4,4,0,0,0,1.75-.34,3.2,3.2,0,0,0,1.18-1,5.55,5.55,0,0,0,.76-1.43Z"/><path class="cls-4" d="M85.18,148.22a5,5,0,0,0,.61.16c.28.06.59.11.92.15s.65.05.93.05l-2.46.23Zm12.52.36v.74H85.18v-.74Zm-10.84.7v0a1.39,1.39,0,0,0-1.44,1.48v.29h-.24v-1.81Zm3.6,11.31V162H88.87v-.22h.27a1.21,1.21,0,0,0,.88-.36,1.17,1.17,0,0,0,.39-.85Zm2-11.92V162H90.41V148.67Zm-.07,11.92h.07a1.12,1.12,0,0,0,.38.85,1.25,1.25,0,0,0,.9.36H94V162H92.4Zm5.3-12.37v.59l-2.46-.23c.29,0,.6,0,.93-.05s.64-.09.92-.15A4.53,4.53,0,0,0,97.7,148.22Zm0,1.06v1.81h-.24v-.29A1.39,1.39,0,0,0,96,149.32v0Z"/><path class="cls-4" d="M108.83,148.29a9.08,9.08,0,0,1,3,.5,7.33,7.33,0,0,1,2.44,1.44,6.37,6.37,0,0,1,1.62,2.21,7.42,7.42,0,0,1,0,5.75,6.46,6.46,0,0,1-1.62,2.21,7.15,7.15,0,0,1-2.44,1.43,8.83,8.83,0,0,1-3,.51,8.7,8.7,0,0,1-3-.51,7.44,7.44,0,0,1-2.44-1.43,6.33,6.33,0,0,1-1.62-2.21,7.54,7.54,0,0,1,0-5.75,6.24,6.24,0,0,1,1.62-2.21,7.65,7.65,0,0,1,2.44-1.44A8.94,8.94,0,0,1,108.83,148.29Zm0,13.31a5.06,5.06,0,0,0,2.8-.79,5.48,5.48,0,0,0,1.93-2.21,8,8,0,0,0,0-6.58,5.45,5.45,0,0,0-1.93-2.2,5.06,5.06,0,0,0-2.8-.79,5,5,0,0,0-2.75.79,5.57,5.57,0,0,0-2,2.2,8,8,0,0,0,0,6.58,5.6,5.6,0,0,0,2,2.21A5,5,0,0,0,108.83,161.6Z"/><path class="cls-4" d="M121.86,160.64V162h-1.68v-.22h.38a1.25,1.25,0,0,0,.88-.33,1.13,1.13,0,0,0,.35-.83Zm-.07-12.37,1.68,2,0,11.78h-1.7V151a21.09,21.09,0,0,0-.2-2.73Zm0,0,12.64,11.63.23,2.44L122,150.66Zm1.7,12.37a1.11,1.11,0,0,0,.37.83,1.27,1.27,0,0,0,.86.33h.38V162h-1.67v-1.38ZM133,150a1.19,1.19,0,0,0-.38-.83,1.24,1.24,0,0,0-.87-.33h-.38v-.23H133V150Zm1.68-1.39v10.94c0,.49,0,1,0,1.38s.08.9.16,1.42h-.2l-1.68-2V148.6Zm-.07,1.39V148.6h1.68v.23h-.38a1.28,1.28,0,0,0-.87.33,1.1,1.1,0,0,0-.36.83Z"/><path class="cls-4" d="M140.92,144.76a1,1,0,0,1,.67-.45,1.36,1.36,0,0,1,.86.1,1.3,1.3,0,0,1,.66.73,2.71,2.71,0,0,1,.25,1.48,3,3,0,0,1-.47,1.31,2.72,2.72,0,0,1-1,.91,2.36,2.36,0,0,1-1.27.3l-.06-.22a1.56,1.56,0,0,0,.91-.66,1.34,1.34,0,0,0,.17-.91,1.52,1.52,0,0,0-.37-.8c-.12-.17-.23-.35-.34-.54a1.52,1.52,0,0,1-.21-.63A.93.93,0,0,1,140.92,144.76Z"/><path class="cls-4" d="M151.15,148.29c.39,0,.76,0,1.11.05l1,.1a6.46,6.46,0,0,1,.77.13,3.14,3.14,0,0,1,.52.15l-.07,2.39h-.25a1.86,1.86,0,0,0-.66-1.51,3,3,0,0,0-2-.55,3,3,0,0,0-1.86.57,1.73,1.73,0,0,0-.75,1.42,1.69,1.69,0,0,0,.11.64,1.64,1.64,0,0,0,.36.58,3.6,3.6,0,0,0,.6.55l4.18,3.06a2.73,2.73,0,0,1,1,1.16,3.73,3.73,0,0,1-.27,3.49,4,4,0,0,1-1.57,1.34,5,5,0,0,1-2.23.48,8.8,8.8,0,0,1-1.53-.14,6.62,6.62,0,0,1-1.4-.38,3.47,3.47,0,0,1-1-.58,3.7,3.7,0,0,1-.09-.89,6.14,6.14,0,0,1,.11-1.11,5.69,5.69,0,0,1,.29-1h.25A3.1,3.1,0,0,0,148,160a2.83,2.83,0,0,0,1.17,1.18,3.8,3.8,0,0,0,1.83.39,3.3,3.3,0,0,0,2.11-.66,2.08,2.08,0,0,0,.75-1.65,2,2,0,0,0-.26-1,3.06,3.06,0,0,0-.83-.88l-4-2.95a3,3,0,0,1-1.11-1.31,3.28,3.28,0,0,1-.28-1.53,3.24,3.24,0,0,1,.55-1.71,3.35,3.35,0,0,1,1.35-1.17A4.12,4.12,0,0,1,151.15,148.29Zm3.36.2v.4h-1.86v-.4Z"/><path class="cls-4" d="M170.14,148h-.06a1.51,1.51,0,0,0-.44-1,1.39,1.39,0,0,0-1-.41h-.29v-.22h1.79Zm0,12.39V162h-1.79v-.22h.29a1.39,1.39,0,0,0,1-.41,1.51,1.51,0,0,0,.44-1Zm2-14V162h-2.08V146.37Zm8.72,7.51v.76h-8.95v-.76ZM172.09,148v-1.63h1.79v.22h-.29a1.39,1.39,0,0,0-1,.41,1.45,1.45,0,0,0-.43,1Zm0,12.39h.07a1.45,1.45,0,0,0,.43,1,1.39,1.39,0,0,0,1,.41h.29V162h-1.79ZM180.74,148h-.06a1.33,1.33,0,0,0-.43-1,1.41,1.41,0,0,0-1-.41H179v-.22h1.78Zm0,12.39V162H179v-.22h.29a1.41,1.41,0,0,0,1-.41,1.33,1.33,0,0,0,.43-1Zm2-14V162h-2.08V146.37Zm-.07,1.63v-1.63h1.79v.22h-.29a1.39,1.39,0,0,0-1,.41,1.45,1.45,0,0,0-.43,1Zm0,12.39h.07a1.45,1.45,0,0,0,.43,1,1.39,1.39,0,0,0,1,.41h.29V162h-1.79Z"/><path class="cls-4" d="M190.77,160.44a.92.92,0,0,0,.06,1,.94.94,0,0,0,.72.36h.18V162h-4.34v-.22h.18a1.75,1.75,0,0,0,.94-.31,2.58,2.58,0,0,0,.85-1.05ZM195,148.2l.13,1.92-5,11.84h-1.5l5.28-11.32.16-.35c.09-.2.19-.43.3-.7l.31-.78a2.76,2.76,0,0,0,.17-.61Zm2.41,8.88v.74h-5.86v-.74ZM195,148.2l6.31,13.69h-2.44l-4.57-11Zm3.29,12.24h2.37a2.38,2.38,0,0,0,.82,1.05,1.77,1.77,0,0,0,.94.31h.18V162h-5.25v-.22h.18a.91.91,0,0,0,.69-.36A.93.93,0,0,0,198.33,160.44Z"/><path class="cls-4" d="M206.59,150.19h-2.37a2.33,2.33,0,0,0-.83-1.05,1.72,1.72,0,0,0-.94-.31h-.15v-.23h5.23v.23h-.18a.88.88,0,0,0-.68.36A1,1,0,0,0,206.59,150.19Zm3.25,12.15-6.29-13.6H206l4.54,10.89Zm0,0-.14-1.9,5-11.77h1.5L211,159.88s-.07.14-.16.33-.19.43-.3.71-.22.54-.31.79a2.21,2.21,0,0,0-.17.63Zm4.27-12.15a.91.91,0,0,0-.78-1.36h-.16v-.23h4.32v.23h-.18a1.79,1.79,0,0,0-1,.31,2.38,2.38,0,0,0-.82,1.05Z"/><path class="cls-4" d="M222.89,150h0a1.2,1.2,0,0,0-1.25-1.18h-.31v-.23h1.85Zm0,10.58.24,1.43h-1.85v-.22h.31a1.16,1.16,0,0,0,.88-.36,1.23,1.23,0,0,0,.37-.85Zm2-12V162h-2V148.6Zm5.81,0v.76h-5.86v-.76Zm-1,6.36v.76h-4.86V155Zm.94,6.3.15.76h-5.95v-.76Zm1.32-2.75-1.1,3.51h-3.56l.74-.76a4,4,0,0,0,1.76-.34,3.17,3.17,0,0,0,1.17-1,5,5,0,0,0,.76-1.43Zm-1.26-10.26v.58l-2.48-.23a9.46,9.46,0,0,0,1.46-.12A5.72,5.72,0,0,0,230.69,148.25Zm-1,5.25V155h-1.43v0a1.09,1.09,0,0,0,.88-.36,1.28,1.28,0,0,0,.3-.85v-.25Zm0,2.17v1.5h-.25v-.25a1.29,1.29,0,0,0-.3-.86,1.11,1.11,0,0,0-.88-.34v-.05Zm1-6.37v1.83h-.22v-.29a1.51,1.51,0,0,0-.38-1.06,1.33,1.33,0,0,0-1.05-.42v-.06Z"/><path class="cls-4" d="M237.17,160.64V162h-1.68v-.22h.38a1.24,1.24,0,0,0,.87-.33,1.1,1.1,0,0,0,.36-.83Zm-.07-12.37,1.68,2,0,11.78h-1.7V151a23,23,0,0,0-.2-2.73Zm0,0,12.64,11.63.22,2.44-12.61-11.68Zm1.7,12.37a1.07,1.07,0,0,0,.37.83,1.25,1.25,0,0,0,.86.33h.38V162h-1.68v-1.38ZM248.28,150a1.15,1.15,0,0,0-.38-.83,1.22,1.22,0,0,0-.87-.33h-.38v-.23h1.68V150ZM250,148.6v10.94c0,.49,0,1,0,1.38s.08.9.15,1.42H250l-1.68-2V148.6Zm-.07,1.39V148.6h1.68v.23h-.38a1.25,1.25,0,0,0-.86.33,1.07,1.07,0,0,0-.37.83Z"/></g></svg>